# xmcd
#
# Track frame offsets: 
#        150
#        21488
#        36301
#        67733
#        83860
#        117073
#        137413
#        159561
#        175666
#        201117
#        212262
#        241647
#        257777
#        285041
#        310589
#        327281
#        346273
#
# Disc length: 4794 seconds
#
# Revision: 0
# Processed by: cddbd v1.5.2PL0 Copyright (c) Steve Scherf et al.
# Submitted via: ExactAudioCopy v0.95a5
#
DISCID=d712b811
DTITLE=Various Artist - Blues Now Here! Box4 CD2
DYEAR=2007
DGENRE=Blues
TTITLE0=Sad Eyes - VARGAS BLUES BAND
TTITLE1=Lookin' Good - RUDY ROTTA
TTITLE2=Poor Heart - PAUL CAMILLERI
TTITLE3=You Upset Me Baby - JOE BONAMASSA
TTITLE4=Bottle Of Whiskey - BERNARD ALLISON
TTITLE5=Old Uncletom Is Gone - RAS SMAILA
TTITLE6=Who Will the Next Fool Be - ALEX SCHULTZ
TTITLE7=Devil Slide - ER5IC BURDON
TTITLE8=Help Me Through The Day - JOHN MAYALL
TTITLE9=Speak to me - INNES SIBUN
TTITLE10=This Dream - DUKE ROBILLARD
TTITLE11=300 Pounds Of Brooklyn Love - BIG ED SULLIVAN
TTITLE12=I'll Play the Blues for You - GARY MOORE
TTITLE13=Long Grey Mare - STORM WARNING
TTITLE14=Just a Heartache - AL BASILE
TTITLE15=Moving - GEORGE THOROGOOD
TTITLE16=Reconsider Baby - VIVIAN CAMPBELL
EXTD=
EXTT0=
EXTT1=
EXTT2=
EXTT3=
EXTT4=
EXTT5=
EXTT6=
EXTT7=
EXTT8=
EXTT9=
EXTT10=
EXTT11=
EXTT12=
EXTT13=
EXTT14=
EXTT15=
EXTT16=
PLAYORDER=
